<?xml version="1.0" encoding="UTF-8" standalone="no"?>
<!-- Created with Inkscape (http://www.inkscape.org/) -->
<svg xmlns:dc="http://purl.org/dc/elements/1.1/" xmlns:cc="http://creativecommons.org/ns#" xmlns:rdf="http://www.w3.org/1999/02/22-rdf-syntax-ns#" xmlns:svg="http://www.w3.org/2000/svg" xmlns="http://www.w3.org/2000/svg" xmlns:sodipodi="http://sodipodi.sourceforge.net/DTD/sodipodi-0.dtd" xmlns:inkscape="http://www.inkscape.org/namespaces/inkscape" width="714.19043" height="515.23804" id="svg2" version="1.1" inkscape:version="0.47pre4 r22446" sodipodi:docname="chomsky-hierarchy.svg">
  <defs id="defs4"/>
  <sodipodi:namedview id="base" pagecolor="#ffffff" bordercolor="#666666" borderopacity="1.0" inkscape:pageopacity="0.0" inkscape:pageshadow="2" inkscape:zoom="0.7" inkscape:cx="152.69718" inkscape:cy="144.99821" inkscape:document-units="px" inkscape:current-layer="layer1" showgrid="false" inkscape:window-width="1440" inkscape:window-height="826" inkscape:window-x="0" inkscape:window-y="25" inkscape:window-maximized="1"/>
  <metadata id="metadata7">
    <rdf:RDF>
      <cc:Work rdf:about="">
        <dc:format>image/svg+xml</dc:format>
        <dc:type rdf:resource="http://purl.org/dc/dcmitype/StillImage"/>
        <dc:title/>
      </cc:Work>
    </rdf:RDF>
  </metadata>
  <g inkscape:label="Layer 1" inkscape:groupmode="layer" id="layer1" transform="translate(-10.047673,-128.12414)">
    <path sodipodi:type="arc" style="fill:#ff0000;fill-opacity:0;fill-rule:evenodd;stroke:#000000;stroke-width:2;stroke-linecap:butt;stroke-linejoin:miter;stroke-miterlimit:4;stroke-opacity:1;stroke-dasharray:none" id="path2816" sodipodi:cx="288.57144" sodipodi:cy="268.07648" sodipodi:rx="125.71429" sodipodi:ry="75.714287" d="m 414.28573,268.07648 c 0,41.81584 -56.2842,75.71428 -125.71429,75.71428 -69.43008,0 -125.71429,-33.89844 -125.71429,-75.71428 0,-41.81585 56.28421,-75.71429 125.71429,-75.71429 69.43009,0 125.71429,33.89844 125.71429,75.71429 z" transform="translate(78.571429,298.57143)"/>
    <text xml:space="preserve" style="font-size:40px;font-style:normal;font-weight:normal;fill:#000000;fill-opacity:1;stroke:none;font-family:Bitstream Vera Sans" x="293.78351" y="573.79077" id="text3590"><tspan sodipodi:role="line" id="tspan3592" x="293.78351" y="573.79077">regular</tspan></text>
    <path d="m 414.28573,268.07648 c 0,41.81584 -56.2842,75.71428 -125.71429,75.71428 -69.43008,0 -125.71429,-33.89844 -125.71429,-75.71428 0,-41.81585 56.28421,-75.71429 125.71429,-75.71429 69.43009,0 125.71429,33.89844 125.71429,75.71429 z" sodipodi:ry="75.714287" sodipodi:rx="125.71429" sodipodi:cy="268.07648" sodipodi:cx="288.57144" id="path3594" style="fill:#ff0000;fill-opacity:0;fill-rule:evenodd;stroke:#000000;stroke-width:1.21930742;stroke-linecap:butt;stroke-linejoin:miter;stroke-miterlimit:4;stroke-opacity:1;stroke-dasharray:none" sodipodi:type="arc" transform="matrix(1.5883625,0,0,1.693885,-91.213201,59.700049)"/>
    <text xml:space="preserve" style="font-size:40px;font-style:normal;font-weight:normal;fill:#000000;fill-opacity:1;stroke:none;font-family:Bitstream Vera Sans" x="244.99446" y="476.64792" id="text3602"><tspan sodipodi:role="line" id="tspan3604" x="244.99446" y="476.64792">context-free</tspan></text>
    <path transform="matrix(2.0632268,0,0,2.444603,-228.24546,-198.69265)" sodipodi:type="arc" style="fill:#ff0000;fill-opacity:0;fill-rule:evenodd;stroke:#000000;stroke-width:0.89053774;stroke-linecap:butt;stroke-linejoin:miter;stroke-miterlimit:4;stroke-opacity:1;stroke-dasharray:none" id="path3606" sodipodi:cx="288.57144" sodipodi:cy="268.07648" sodipodi:rx="125.71429" sodipodi:ry="75.714287" d="m 414.28573,268.07648 c 0,41.81584 -56.2842,75.71428 -125.71429,75.71428 -69.43008,0 -125.71429,-33.89844 -125.71429,-75.71428 0,-41.81585 56.28421,-75.71429 125.71429,-75.71429 69.43009,0 125.71429,33.89844 125.71429,75.71429 z"/>
    <text xml:space="preserve" style="font-size:40px;font-style:normal;font-weight:normal;fill:#000000;fill-opacity:1;stroke:none;font-family:Bitstream Vera Sans" x="195.50227" y="373.79077" id="text3608"><tspan sodipodi:role="line" id="tspan3610" x="195.50227" y="373.79077">context-sensitive</tspan></text>
    <path d="m 414.28573,268.07648 c 0,41.81584 -56.2842,75.71428 -125.71429,75.71428 -69.43008,0 -125.71429,-33.89844 -125.71429,-75.71428 0,-41.81585 56.28421,-75.71429 125.71429,-75.71429 69.43009,0 125.71429,33.89844 125.71429,75.71429 z" sodipodi:ry="75.714287" sodipodi:rx="125.71429" sodipodi:cy="268.07648" sodipodi:cx="288.57144" id="path3612" style="fill:#ff0000;fill-opacity:0;fill-rule:evenodd;stroke:#000000;stroke-width:0.64614117;stroke-linecap:butt;stroke-linejoin:miter;stroke-miterlimit:4;stroke-opacity:1;stroke-dasharray:none" sodipodi:type="arc" transform="matrix(2.8325756,0,0,3.3823896,-450.25753,-521.51973)"/>
    <text xml:space="preserve" style="font-size:40px;font-style:normal;font-weight:normal;fill:#000000;fill-opacity:1;stroke:none;font-family:Bitstream Vera Sans" x="129.90657" y="245.21933" id="text3614"><tspan sodipodi:role="line" id="tspan3616" x="129.90657" y="245.21933">recursively enumerable</tspan></text>
  </g>
</svg>